<mxfile host="app.diagrams.net" modified="2024-09-25T03:44:36.111Z" agent="Mozilla/5.0 (X11; Linux x86_64) AppleWebKit/537.36 (KHTML, like Gecko) Chrome/126.0.0.0 Safari/537.36" etag="Sx2kDW2U9PnqvgADYGo2" version="24.5.3" type="device">
  <diagram name="第 1 页" id="scXXjKHtbtBWgzQobIoN">
    <mxGraphModel dx="1061" dy="1150" grid="1" gridSize="10" guides="1" tooltips="1" connect="1" arrows="1" fold="1" page="1" pageScale="1" pageWidth="827" pageHeight="1169" math="0" shadow="0">
      <root>
        <mxCell id="0" />
        <mxCell id="1" parent="0" />
        <mxCell id="dJp-HylQlY7M-OvU0SqB-1" value="" style="rounded=1;whiteSpace=wrap;html=1;" vertex="1" parent="1">
          <mxGeometry x="150" y="210" width="470" height="720" as="geometry" />
        </mxCell>
        <mxCell id="dJp-HylQlY7M-OvU0SqB-2" value="&lt;font style=&quot;font-size: 20px;&quot;&gt;Java内存区域&lt;/font&gt;" style="rounded=0;whiteSpace=wrap;html=1;strokeColor=none;" vertex="1" parent="1">
          <mxGeometry x="260" y="250" width="240" height="70" as="geometry" />
        </mxCell>
        <mxCell id="dJp-HylQlY7M-OvU0SqB-3" value="" style="rounded=1;whiteSpace=wrap;html=1;" vertex="1" parent="1">
          <mxGeometry x="185" y="360" width="390" height="200" as="geometry" />
        </mxCell>
        <mxCell id="dJp-HylQlY7M-OvU0SqB-5" value="&lt;font style=&quot;font-size: 16px;&quot;&gt;堆&lt;/font&gt;" style="rounded=1;whiteSpace=wrap;html=1;" vertex="1" parent="1">
          <mxGeometry x="220" y="380" width="150" height="160" as="geometry" />
        </mxCell>
        <mxCell id="dJp-HylQlY7M-OvU0SqB-6" value="&lt;font style=&quot;font-size: 16px;&quot;&gt;方法区&lt;/font&gt;" style="rounded=1;whiteSpace=wrap;html=1;" vertex="1" parent="1">
          <mxGeometry x="390" y="380" width="150" height="160" as="geometry" />
        </mxCell>
        <mxCell id="dJp-HylQlY7M-OvU0SqB-7" value="" style="rounded=1;whiteSpace=wrap;html=1;" vertex="1" parent="1">
          <mxGeometry x="170" y="590" width="175" height="280" as="geometry" />
        </mxCell>
        <mxCell id="dJp-HylQlY7M-OvU0SqB-10" value="" style="rounded=1;whiteSpace=wrap;html=1;" vertex="1" parent="1">
          <mxGeometry x="360" y="587.5" width="180" height="285" as="geometry" />
        </mxCell>
        <mxCell id="dJp-HylQlY7M-OvU0SqB-11" value="Thread1" style="text;html=1;align=center;verticalAlign=middle;whiteSpace=wrap;rounded=0;" vertex="1" parent="1">
          <mxGeometry x="185" y="610" width="60" height="30" as="geometry" />
        </mxCell>
        <mxCell id="dJp-HylQlY7M-OvU0SqB-12" value="Thread2" style="text;html=1;align=center;verticalAlign=middle;whiteSpace=wrap;rounded=0;" vertex="1" parent="1">
          <mxGeometry x="374" y="612.5" width="60" height="30" as="geometry" />
        </mxCell>
        <mxCell id="dJp-HylQlY7M-OvU0SqB-13" value="&lt;span style=&quot;font-size: 16px;&quot;&gt;虚拟机栈&lt;/span&gt;" style="rounded=1;whiteSpace=wrap;html=1;" vertex="1" parent="1">
          <mxGeometry x="197.5" y="650" width="120" height="60" as="geometry" />
        </mxCell>
        <mxCell id="dJp-HylQlY7M-OvU0SqB-14" value="&lt;font style=&quot;font-size: 16px;&quot;&gt;程序计数器&lt;/font&gt;" style="rounded=1;whiteSpace=wrap;html=1;" vertex="1" parent="1">
          <mxGeometry x="197.5" y="790" width="120" height="60" as="geometry" />
        </mxCell>
        <mxCell id="dJp-HylQlY7M-OvU0SqB-15" value="&lt;font style=&quot;font-size: 16px;&quot;&gt;本地方法栈&lt;/font&gt;" style="rounded=1;whiteSpace=wrap;html=1;" vertex="1" parent="1">
          <mxGeometry x="197.5" y="720" width="120" height="60" as="geometry" />
        </mxCell>
        <mxCell id="dJp-HylQlY7M-OvU0SqB-16" value="&lt;span style=&quot;font-size: 16px;&quot;&gt;虚拟机栈&lt;/span&gt;" style="rounded=1;whiteSpace=wrap;html=1;" vertex="1" parent="1">
          <mxGeometry x="390" y="652.5" width="120" height="60" as="geometry" />
        </mxCell>
        <mxCell id="dJp-HylQlY7M-OvU0SqB-17" value="&lt;font style=&quot;font-size: 16px;&quot;&gt;本地方法栈&lt;/font&gt;" style="rounded=1;whiteSpace=wrap;html=1;" vertex="1" parent="1">
          <mxGeometry x="390" y="722.5" width="120" height="60" as="geometry" />
        </mxCell>
        <mxCell id="dJp-HylQlY7M-OvU0SqB-18" value="&lt;font style=&quot;font-size: 16px;&quot;&gt;程序计数器&lt;/font&gt;" style="rounded=1;whiteSpace=wrap;html=1;" vertex="1" parent="1">
          <mxGeometry x="390" y="792.5" width="120" height="60" as="geometry" />
        </mxCell>
        <mxCell id="dJp-HylQlY7M-OvU0SqB-19" value="" style="rounded=1;whiteSpace=wrap;html=1;" vertex="1" parent="1">
          <mxGeometry x="550" y="590" width="60" height="280" as="geometry" />
        </mxCell>
        <mxCell id="dJp-HylQlY7M-OvU0SqB-20" value="Thread x&lt;br&gt;..." style="text;html=1;align=center;verticalAlign=middle;whiteSpace=wrap;rounded=0;" vertex="1" parent="1">
          <mxGeometry x="550" y="612.5" width="60" height="30" as="geometry" />
        </mxCell>
      </root>
    </mxGraphModel>
  </diagram>
</mxfile>
